<svg width="7795" height="7795" xmlns="http://www.w3.org/2000/svg" xmlns:xlink="http://www.w3.org/1999/xlink" xml:space="preserve" overflow="hidden"><defs><clipPath id="clip0"><rect x="3898" y="0" width="7795" height="7795"/></clipPath></defs><g clip-path="url(#clip0)" transform="translate(-3898 0)"><path d="M7146 54.999 7146 7740 7010.1 7715.73C5234.03 7352.31 3898 5780.92 3898 3897.5 3898 2014.08 5234.03 442.687 7010.1 79.2673ZM3898 0 7146 0 7146 0.0855266 3898 0.0855266Z" fill="#FF0909" fill-rule="evenodd"/><path d="M7795.57 0.0858912C7997.37 0.0858912 8195.58 15.4229 8389.11 44.9951L8445.14 55.0014 8445.14 3247.99 11638.1 3247.99 11648.1 3304.11C11677.7 3497.65 11693 3695.87 11693 3897.67 11693 4099.48 11677.7 4297.7 11648.1 4491.24L11638.1 4547.18 8445.14 4547.18 8445.14 7740.34 8389.11 7750.35C8260.09 7770.06 8128.99 7783.45 7996.13 7790.19L7805.76 7795 7785.38 7795 7595.01 7790.19C7462.15 7783.45 7331.05 7770.06 7202.03 7750.35L7146 7740.34 7146 55.0018 7202.03 44.9951C7395.56 15.4229 7593.78 0.0858912 7795.57 0.0858912ZM7146 0 8445.14 0 8445.14 0.0858912 7795.57 0.0858912 7146 0.0858912Z" fill="#003399" fill-rule="evenodd"/></g></svg>