<svg width="26996" height="8518" xmlns="http://www.w3.org/2000/svg" xmlns:xlink="http://www.w3.org/1999/xlink" overflow="hidden"><defs><clipPath id="clip0"><rect x="0" y="0" width="26996" height="8518"/></clipPath></defs><g clip-path="url(#clip0)"><path d="M0.000488281-0.000180446 5197 1299.21 5197 6495.8 0.000488281 7795Z" fill="#FF0909" fill-rule="evenodd"/><path d="M5197 1299 15591 3897.5 5197 6496 5197 1299Z" fill="#FFFFFF" fill-rule="evenodd"/><path d="M5197 1299 6756.29 1688.82 6756.29 3118.03 12473.1 3118.03 15591 3897.5 12473.1 4676.98 6756.29 4676.98 6756.29 6106.18 5197 6496Z" fill="#003399" fill-rule="evenodd"/><path d="M1422.83 2667.5 1292.19 2447.5 1147.8 2406.25 1127.17 2282.5 1264.69 2179.38 1746 2028.12 2179.19 1801.25 2481.73 1705 2770.52 1732.5 3093.69 1870 3258.71 2110.62 3396.23 2481.88 3348.1 2756.88 3210.58 2983.75 3024.93 3155.62 2880.53 3265.62 3361.85 3437.5 3960.06 3815.62 4462 4200.62 3788.16 4193.75 3891.3 4358.75 4455.12 4826.25 3045.56 4571.88 3107.44 4757.5 2846.15 4895 2316.71 4578.75 1979.79 4427.5 1209.68 4145.62 879.635 3891.25 804 3547.5 893.387 3300 1106.54 3135 1457.21 3018.12 2055.42 2976.88 2612.37 2921.88 2825.53 2798.12 2887.41 2633.12 2921.79 2413.12 2818.65 2206.88 2626.12 2103.75 2351.09 2138.12 2027.92 2378.75 1807.89 2543.75 1629.11 2640 1422.83 2667.5Z" fill="#FFFFFF" fill-rule="evenodd"/><path d="M1319.8 2427 722 2688.32 756.356 2874 1416 2695.2 1319.8 2427Z" fill="#FFC800" fill-rule="evenodd"/><path d="M2857.44 4884.23 3063.79 5280.15 2574.05 5288.4 2464 5802.55 3025.27 6061 3515 5291.15 3303.15 5189.42 3121.56 4755 2857.44 4884.23Z" fill="#FFC800" fill-rule="evenodd"/><path d="M2098.15 4494 1979.94 5126.5 1586.84 4854.25 1169 5222.75 1526.37 5660 1883.73 5489.5 2282.33 5470.25 2216.35 5200.75 2494 4692 2098.15 4494Z" fill="#FFC800" fill-rule="evenodd"/><path d="M2982.51 4245.73 3729.35 4245.73C3806.19 4328.33 4085.36 4598.11 4345.84 4759.63 4298.18 4751.07 3086.4 4533.39 3085.44 4533.39 3039.91 4414.44 2982.51 4245.73 2982.51 4245.73ZM3088.74 5223.75C3074.15 5056.6 2997.31 4980.61 2918.72 4903.26L3084.66 4816.56C3088.74 4825.9 3240.28 5171.67 3240.28 5171.67 3282.5 5263.6 3368.49 5319.57 3476.65 5328.13 3320.24 5433.67 3077.46 5749.11 2992.24 6012.08 2928.06 5934.72 2770.68 5829.57 2565.23 5779.83 3043.22 5514.13 3098.08 5333.38 3088.74 5223.75ZM2603.35 5328.13C2735.26 5363.31 2852.95 5366.03 2972.58 5341.55 2918.7 5430.76 2786.41 5545.03 2540.32 5692.37 2574.56 5596.36 2613.86 5496.44 2603.35 5328.13ZM1449.95 2624.18 1398.01 2459.36 1537.69 2412.91C1596.44 2468.69 1682.82 2452.17 1715.11 2399.11 1728.92 2376.37 1723.28 2341.19 1700.52 2317.09 1668.03 2282.1 1613.17 2278.41 1554.62 2307.17 1453.46 2357.32 1361.05 2380.06 1271.17 2383.56 1196.66 2386.67 1184.41 2354.6 1180.91 2331.86 1179.93 2324.67 1180.71 2299.59 1196.28 2282.1 1217.87 2257.03 1241.99 2250.23 1296.85 2240.51 1513.18 2200.66 1794.09 2091.24 2068 1940.03 2264.3 1831.38 2406.12 1776.57 2512.13 1767.24 2718.34 1749.55 2915.8 1816.22 3067.35 1955.77 3228.43 2103.09 3320.83 2314.17 3320.83 2535.55 3320.83 2840.7 3088.35 3115.13 2869.5 3218.14 2803.16 3206.67 2625.94 3180.44 2472.25 3180.44 2188.03 3180.44 1435.17 3180.44 1411.82 3729.12L1410.66 3755.55C1410.66 3881.88 1449.95 3989.17 1533.41 4067.7 1722.5 4245.73 2069.37 4246.12 2201.06 4245.73 2201.06 4245.73 2876.11 4245.73 2876.31 4245.73 2960.16 4498.4 3051.78 4728.72 3051.78 4728.72 3049.25 4726.19 2843.25 4843.59 2843.25 4843.59 2709.39 4729.49 2510.2 4626.68 2255.15 4507.54 2065.28 4417.36 1876.97 4349.13 1694.68 4283.24 1235.96 4116.29 841.047 3972.66 874.508 3573.05 910.887 3112.02 1371.55 3078.59 2069.75 3029.61 2070.14 3029.61 2415.25 3002.6 2415.25 3002.6 2643.65 2982.97 2807.45 2909.5 2902.77 2785.5 2976.88 2688.12 3005.29 2558.48 2981.36 2428.65 2940.31 2205.33 2773.98 2048.87 2575.94 2048.87 2373.24 2048.87 2215.86 2177.54 2049.13 2313.39 1876.38 2454.69 1698.38 2600.46 1449.95 2624.18ZM2393.07 4764.88 2129.27 4764.88C2143.09 4682.85 2153.41 4570.31 2153.41 4570.31 2287.64 4627.26 2368.95 4665.74 2429.64 4700.15L2393.07 4764.88ZM2163.91 5262.04C2163.52 5304.41 2170.34 5375.55 2214.49 5432.31 1890.78 5360 1605.97 5555.33 1526.21 5618.31 1488.86 5444.35 1384.2 5340.75 1284.21 5262.82 1405.99 5271.37 1619.79 5282.45 1782.42 5267.87 1892.92 5258.15 1972.87 5230.56 2030.07 5125.8 2062.95 5066.12 2093.49 4971.08 2117.61 4856.99L2335.68 4856.21C2248.15 5003.73 2165.08 5156.31 2163.91 5262.04ZM1598.97 4916.47C1647.02 4981.39 1716.27 5075.46 1890 5148.35 1860.62 5164.28 1809.26 5170.11 1773.47 5173.22 1621.14 5187.61 1413.38 5181.19 1294.71 5176.53 1422.52 5096.46 1525.04 5009 1598.97 4916.47ZM1312.81 2488.71 1362.22 2653.72C1215.93 2711.84 1020.81 2776.17 872.954 2792.88 833.075 2797.36 803.894 2789 785.413 2772.48 771.017 2758.87 763.43 2738.46 763.43 2712.22 1001.55 2664.61 1198.22 2584.53 1312.81 2488.71ZM3571.96 3618.72 2747.12 3618.53 2742.05 3705.99 3699.39 3707.93C3699.39 3708.71 3890.43 3835.04 3940.22 3868.67L2752.95 3868.67 2748.29 3965.08 4076.01 3966.24C4076.01 3966.63 4315.49 4124.83 4361.01 4148.94L2224.2 4148.94C2047.36 4150.49 1757.5 4135.72 1607.9 3987.03 1548.18 3927.96 1519 3852.15 1519 3755.55 1519 3434.28 1821.7 3277.62 2462.7 3277.62 2584.67 3277.62 2719.29 3291.62 2867.35 3321.74 3231.52 3395.59 3482.47 3550.69 3571.96 3618.72ZM2051.46 4527.36C2053.79 4682.46 2002.82 4948.16 1943.29 5070.21 1772.88 4995 1697.98 4877.79 1657.91 4821.04L1555.58 4807.83C1499.75 4881.1 1343.34 5066.13 1045.3 5212.48 1088.69 5237.36 1404.81 5427.45 1443.33 5712.19L1539.43 5737.46C1667.63 5637.35 1989.98 5422.39 2316.62 5566.03L2363.5 5478.95C2289.96 5389.55 2266.42 5344.07 2266.42 5281.48 2266.42 5110.83 2429.83 4878.96 2524 4750.49 2798.88 4896.65 2993.61 5050.57 2990.5 5255.82 2757.44 5283.82 2595.38 5224.14 2595.38 5224.14L2504.54 5285.37C2540.72 5485.55 2392.48 5796.73 2363.11 5855.04 2799.84 5897.8 2964.23 6136.86 2965.21 6139L3073.17 6117.63C3184.65 5761.75 3412.45 5459.51 3671.78 5326.57L3639.87 5233.86C3477.04 5262.04 3377.83 5226.48 3330.54 5122.69 3265.19 4987.03 3196.31 4824.15 3125.5 4637.37 3483.06 4698.21 3863.19 4768.75 4198.58 4830.95L4513.73 4889.46 4547 4798.5C4189.83 4563.71 3987.12 4367.99 3872.92 4244.18L4527.36 4244.95 4541.17 4163.91 4181.07 3914.15 3585 3503.07C3545.7 3475.29 3334.83 3337.49 3007.81 3250.61 3220.63 3131.27 3434.05 2859.35 3434.05 2540.99 3434.05 2287.74 3329 2045.95 3144.57 1876.86 2968.9 1716.12 2740.71 1638.38 2502.79 1659.37 2370.31 1670.84 2205.15 1734.2 2010.8 1847.31 1756.73 1994.64 1515.7 2091.43 1273.5 2141.77 1177.78 2161.79 1142.77 2177.54 1110.67 2214.27 1076.62 2252.95 1061.06 2301.15 1068.45 2347.02 1077.79 2409.02 1111.84 2450.81 1169.61 2470.63 984.412 2579.86 731.511 2637.59 650 2649.44 658.754 2781.41 697.273 2908.33 881.696 2889.67 1053.86 2872.77 1306.37 2778.5 1455.78 2724.86 1764.32 2689.09 1954.19 2528.75 2121.29 2392.11 2278.28 2262.86 2413.68 2156.93 2575.93 2156.93 2698.1 2156.93 2839.54 2257.03 2874.94 2449.25 2879.21 2474.52 2897.7 2603.57 2812.1 2716.5 2735.65 2816.98 2594.81 2878.98 2405.71 2895.12L2041.54 2922.72C1350.53 2971.69 804.464 3010.76 760.887 3564.11 720.812 4039.51 1153.08 4196.75 1654.21 4378.28 1745.64 4408.61 1846.61 4443.98 2051.46 4527.36Z" fill="#1A1919" fill-rule="evenodd"/><text font-family="IBM Plex Sans,IBM Plex Sans_MSFontService,sans-serif" font-weight="700" font-size="3850" transform="matrix(1 0 0 1 16892.9 5230)">YCH</text></g></svg>