<svg xmlns="http://www.w3.org/2000/svg" width="300" height="150" viewBox="0 0 300 150"><path d="M0 0v150l300-75L0 0Z" fill="#fff"/><path d="M100 25 0 0v150l100-25V25Z" fill="red"/><path d="M240 60H130V32.5L100 25v100l30-7.5V90h110l60-15-60-15Z" fill="#00a"/><path d="M23.603 46.905c-2.341 1.947-6.382 3.564-11.27 4.544 0 .53.152.938.455 1.214.372.339.975.507 1.783.418 3.041-.343 7.053-1.644 10.05-2.827l-1.018-3.349Zm5.878 49.277c-1.515 1.891-3.624 3.658-6.248 5.273 2.436.1 6.699.233 9.827-.051.747-.069 1.793-.196 2.392-.517-3.553-1.467-4.982-3.38-5.971-4.705Zm11.6 7.014c.018-2.139 1.718-5.241 3.519-8.227l-4.476.002c-.488 2.321-1.125 4.25-1.793 5.462-1.169 2.124-2.816 2.676-5.091 2.885-3.322.304-7.717.073-10.222-.106 2.048 1.585 4.205 3.685 4.962 7.217 1.645-1.27 7.494-5.241 14.137-3.768-.904-1.158-1.046-2.597-1.036-3.465Zm4.7-10.09.753-1.313c-1.248-.698-2.906-1.477-5.663-2.631 0 0-.221 2.284-.504 3.944h5.414Zm4.318 11.431c.225 3.413-.591 5.448-1.297 7.396 5.059-2.995 7.778-5.312 8.881-7.12-2.451.507-4.877.448-7.584-.276Zm9.967-2.116c.199 2.232-.937 5.9-10.744 11.289 4.209 1.01 7.438 3.147 8.769 4.717 1.751-5.336 6.708-11.741 9.931-13.89-2.215-.166-3.98-1.298-4.846-3.171l-3.193-7.211-3.407 1.759c1.607 1.572 3.193 3.119 3.49 6.507Z" fill="#ff0"/><path d="M69.989 69.848c-1.837-1.38-6.997-4.531-14.475-6.034-3.033-.603-5.801-.887-8.302-.887-13.162 0-19.366 3.17-19.366 9.693 0 1.956.597 3.497 1.825 4.703 3.066 3.015 9.016 3.311 12.648 3.291l43.871-.004c-.943-.487-5.848-3.701-5.848-3.719l-27.268-.019.097-1.948H77.54c-1.018-.689-4.943-3.258-4.943-3.274l-19.639-.029.093-1.781 16.938.008ZM26.418 49.654c5.105-.479 8.763-3.437 12.308-6.304 3.421-2.766 6.647-5.377 10.819-5.377 4.057 0 7.478 3.176 8.32 7.722.49 2.63-.099 5.263-1.615 7.234-1.958 2.53-5.323 4.015-10.005 4.417l-7.104.537c-14.324 1.007-23.789 1.67-24.532 11.032-.688 8.118 7.424 11.031 16.843 14.415 3.739 1.344 7.606 2.731 11.499 4.559 5.242 2.419 9.321 4.509 12.083 6.822 0 0 4.229-2.396 4.269-2.327a207.107 207.107 0 0 1-3.601-9.814v-.004H41.838c-2.703.016-9.822 0-13.705-3.608-1.707-1.589-2.511-3.768-2.511-6.336l.015-.54c.485-11.129 15.944-11.129 21.769-11.129 3.167 0 6.805.528 8.164.761 4.486-2.09 9.263-7.659 9.263-13.864a15.893 15.893 0 0 0-5.2-11.768A14.891 14.891 0 0 0 48.24 32.26c-2.186.19-5.089 1.304-9.126 3.51-5.613 3.059-11.383 5.287-15.829 6.093-1.121.207-1.622.341-2.071.848a1.375 1.375 0 0 0-.306 1.014c.059.453.32 1.11 1.845 1.049 1.854-.071 3.742-.539 5.818-1.544 1.211-.586 2.328-.515 2.994.191.461.493.587 1.209.302 1.67-.66 1.083-2.433 1.412-3.638.276l-2.866.941 1.055 3.346Zm31.467 32.914s1.176 3.426 2.11 5.841c.021 0 24.898 4.415 25.883 4.589-5.357-3.272-11.082-8.755-12.66-10.432l-15.333.002Z" fill="#fff"/><path d="m57.885 82.57 15.333-.004c1.578 1.677 7.303 7.16 12.66 10.432-.985-.174-25.862-4.589-25.883-4.589-.934-2.415-2.11-5.841-2.11-5.839Zm2.181 19.851c-.297-3.388-1.883-4.935-3.49-6.507l3.407-1.759 3.193 7.211c.866 1.873 2.631 3.005 4.846 3.171-3.223 2.149-8.18 8.554-9.931 13.89-1.331-1.57-4.56-3.707-8.769-4.717 9.807-5.389 10.943-9.057 10.744-11.289Zm-9.967 2.116c2.707.724 5.133.783 7.584.276-1.103 1.808-3.822 4.125-8.881 7.12.706-1.948 1.522-3.983 1.297-7.396ZM26.416 49.652l-1.053-3.344 2.866-.941c1.205 1.136 2.978.807 3.638-.276.285-.461.159-1.177-.302-1.67-.666-.706-1.783-.777-2.994-.191-2.076 1.005-3.964 1.473-5.818 1.544-1.525.061-1.786-.596-1.845-1.049-.038-.365.073-.73.306-1.014.449-.507.95-.641 2.071-.848 4.446-.806 10.216-3.034 15.829-6.093 4.037-2.206 6.94-3.32 9.126-3.51a14.891 14.891 0 0 1 11.393 3.822 15.893 15.893 0 0 1 5.2 11.768c0 6.205-4.777 11.774-9.263 13.864-1.359-.233-4.997-.761-8.164-.761-5.825 0-21.284 0-21.769 11.129l-.015.54c0 2.568.804 4.747 2.511 6.336 3.883 3.608 11.002 3.624 13.705 3.608h13.864v.004a207.107 207.107 0 0 0 3.601 9.814c-.04-.069-4.269 2.327-4.269 2.327-2.762-2.313-6.841-4.403-12.083-6.822-3.893-1.828-7.76-3.215-11.499-4.559-9.419-3.384-17.531-6.297-16.843-14.415.743-9.362 10.208-10.025 24.532-11.032l7.104-.537c4.682-.402 8.047-1.887 10.005-4.417 1.516-1.971 2.105-4.604 1.615-7.234-.842-4.546-4.263-7.722-8.32-7.722-4.172 0-7.398 2.611-10.819 5.377-3.545 2.867-7.203 5.825-12.31 6.302Zm19.365 43.454h-5.414c.283-1.66.504-3.944.504-3.944 2.757 1.154 4.415 1.933 5.663 2.631l-.753 1.313Zm-4.7 10.09c-.01.868.132 2.307 1.036 3.465-6.643-1.473-12.492 2.498-14.137 3.768-.757-3.532-2.914-5.632-4.962-7.217 2.505.179 6.9.41 10.222.106 2.275-.209 3.922-.761 5.091-2.885.668-1.212 1.305-3.141 1.793-5.462l4.476-.002c-1.801 2.986-3.501 6.088-3.519 8.227Zm-11.6-7.014c.989 1.325 2.418 3.238 5.971 4.705-.599.321-1.645.448-2.392.517-3.128.284-7.391.151-9.827.051 2.624-1.615 4.733-3.382 6.248-5.273Zm-5.878-49.277 1.018 3.349c-2.997 1.183-7.009 2.484-10.05 2.827-.808.089-1.411-.079-1.783-.418-.303-.276-.455-.684-.455-1.214 4.888-.98 8.929-2.597 11.27-4.544Zm46.384 22.941-16.936-.006-.093 1.781 19.639.029c0 .016 3.925 2.585 4.943 3.274H53.171l-.097 1.948 27.268.019c0 .018 4.905 3.232 5.848 3.719l-43.871.004c-3.632.02-9.582-.276-12.648-3.291-1.228-1.206-1.825-2.747-1.825-4.703 0-6.523 6.204-9.693 19.366-9.693 2.501 0 5.269.284 8.302.887 7.478 1.503 12.638 4.654 14.473 6.032ZM38.762 88.291c.047 3.139-.995 8.532-2.209 11.015-3.505-1.523-5.039-3.905-5.868-5.058l-2.092-.266c-1.147 1.484-4.361 5.239-10.473 8.21.882.505 7.373 4.364 8.166 10.148l1.975.506c2.622-2.031 9.249-6.394 15.948-3.482l.967-1.765c-1.511-1.804-1.997-2.731-1.997-4.005 0-3.468 3.363-8.173 5.293-10.776 5.644 2.964 9.644 6.089 9.573 10.26-4.783.568-8.112-.647-8.112-.647l-1.857 1.24c.738 4.058-2.313 10.378-2.91 11.565 8.966.872 12.331 5.715 12.363 5.764l2.214-.426c2.284-7.225 6.966-13.357 12.289-16.075l-.649-1.879c-3.343.578-5.386-.138-6.355-2.248-1.342-2.75-2.758-6.063-4.211-9.851 7.343 1.234 15.145 2.668 22.03 3.932l6.463 1.179.69-1.842c-7.329-4.766-11.499-8.737-13.83-11.255l13.423.016.284-1.643-7.384-5.073-12.239-8.345c-.813-.553-5.148-3.356-11.859-5.115 4.376-2.43 8.765-7.949 8.765-14.415a18.203 18.203 0 0 0-5.951-13.473c-3.609-3.266-8.289-4.837-13.178-4.421-2.717.236-6.116 1.52-10.092 3.815-5.217 2.997-10.166 4.955-15.141 5.981-1.959.404-2.681.72-3.341 1.473-.694.783-1.011 1.765-.868 2.693.192 1.26.895 2.104 2.078 2.515-3.798 2.22-8.986 3.379-10.667 3.626.18 2.685.973 5.257 4.753 4.876 3.543-.349 8.715-2.252 11.792-3.348 6.327-.722 10.232-3.987 13.658-6.76 3.225-2.61 6.005-4.766 9.34-4.766 2.503 0 5.416 2.041 6.135 5.94.093.503.473 3.135-1.289 5.414-1.577 2.043-4.464 3.299-8.347 3.631l-7.48.568c-14.186.991-25.387 1.774-26.282 13.002-.823 9.656 8.061 12.849 18.342 16.538 1.876.611 3.944 1.331 8.14 3.027Z"/></svg>