<svg xmlns="http://www.w3.org/2000/svg" viewBox="0 0 100 100">
	<path fill="white" d="M29.292.35c-5.32.251-8.953 1.1-12.129 2.348-3.287 1.281-6.073 3-8.845 5.782-2.772 2.782-4.479 5.57-5.751 8.862-1.231 3.183-2.065 6.819-2.3 12.142-.235 5.323-.287 7.034-.261 20.612.026 13.578.086 15.28.344 20.614.254 5.319 1.1 8.951 2.348 12.129 1.283 3.287 3 6.072 5.783 8.845 2.783 2.773 5.569 4.476 8.869 5.75 3.18 1.229 6.817 2.067 12.139 2.3 5.322.233 7.035.287 20.61.261 13.574-.026 15.283-.086 20.616-.339s8.946-1.105 12.124-2.347c3.287-1.286 6.074-3 8.845-5.784 2.771-2.784 4.477-5.574 5.748-8.868 1.232-3.181 2.069-6.818 2.3-12.136.233-5.337.288-7.041.262-20.617-.026-13.576-.087-15.278-.34-20.61-.253-5.332-1.1-8.953-2.347-12.132-1.285-3.287-3-6.07-5.782-8.845-2.782-2.775-5.574-4.48-8.867-5.748-3.182-1.231-6.817-2.07-12.139-2.3-5.322-.23-7.035-.289-20.614-.263-13.58.026-15.28.084-20.613.344Zm.584 90.389c-4.875-.212-7.522-1.022-9.286-1.7-2.336-.9-4-1.988-5.758-3.729s-2.838-3.411-3.75-5.743c-.685-1.764-1.51-4.408-1.738-9.283-.248-5.269-.3-6.851-.329-20.2-.029-13.349.022-14.929.253-20.2.208-4.871 1.023-7.521 1.7-9.284.9-2.339 1.984-4 3.729-5.757 1.745-1.757 3.41-2.839 5.743-3.751 1.762-.688 4.406-1.506 9.279-1.738 5.273-.25 6.853-.3 20.201-.329 13.347-.029 14.931.021 20.206.253 4.871.212 7.522 1.019 9.283 1.7 2.337.9 4 1.981 5.757 3.729 1.757 1.748 2.84 3.407 3.752 5.745.689 1.757 1.507 4.4 1.737 9.276.251 5.273.308 6.854.332 20.2.024 13.346-.023 14.931-.254 20.2-.213 4.875-1.021 7.523-1.7 9.289-.9 2.336-1.985 4.001-3.731 5.757-1.746 1.756-3.409 2.838-5.743 3.75-1.76.687-4.407 1.507-9.276 1.739-5.273.248-6.853.3-20.205.329-13.353.029-14.928-.025-20.202-.253Zm40.762-67.462a6 6 0 1 0 12-.02 6 6 0 0 0-12 .02ZM24.327 50.05c.028 14.18 11.544 25.649 25.722 25.622 14.177-.027 25.654-11.542 25.627-25.722-.027-14.18-11.546-25.652-25.725-25.624-14.18.028-25.651 11.546-25.624 25.724Zm9.006-.018c-.018-9.205 7.43-16.682 16.635-16.7 9.205-.018 16.681 7.429 16.7 16.634.018 9.205-7.429 16.682-16.634 16.7a16.664 16.664 0 0 1-16.701-16.634Z"/>
</svg>
