<svg xmlns="http://www.w3.org/2000/svg" viewBox="0 0 87.207 100">
	<path d="M74.182,20.044C68.794,16.532,64.908,10.911,63.694,4.362C63.433,2.947,63.288,1.490,63.288,0.000L46.096,0.000L46.068,68.899C45.780,76.615,39.429,82.808,31.645,82.808C29.225,82.808,26.947,82.203,24.940,81.147C20.340,78.727,17.192,73.906,17.192,68.357C17.192,60.388,23.676,53.904,31.643,53.904C33.130,53.904,34.557,54.150,35.907,54.571L35.907,37.021C34.510,36.830,33.090,36.712,31.643,36.712C14.195,36.712,0.000,50.907,0.000,68.357C0.000,79.063,5.348,88.537,13.510,94.266C18.650,97.875,24.903,100.000,31.645,100.000C49.093,100.000,63.288,85.805,63.288,68.357L63.288,33.419C70.030,38.257,78.293,41.109,87.207,41.109L87.207,23.917C82.407,23.917,77.934,22.490,74.182,20.044ZZ"/>
</svg>
