<svg xmlns="http://www.w3.org/2000/svg" viewBox="0 0 123.067 100" >
	<path fill="white" d="M110.468,24.895C110.543,25.980,110.543,27.065,110.543,28.160C110.543,61.522,85.145,100.000,38.703,100.000L38.703,99.980C24.983,100.000,11.549,96.070,0.000,88.661C1.995,88.901,4.000,89.021,6.010,89.026C17.379,89.036,28.423,85.221,37.368,78.196C26.563,77.991,17.089,70.947,13.779,60.662C17.564,61.392,21.464,61.242,25.178,60.228C13.399,57.848,4.925,47.498,4.925,35.479C4.925,35.369,4.925,35.264,4.925,35.159C8.434,37.114,12.364,38.199,16.384,38.319C5.290,30.904,1.870,16.145,8.569,4.606C21.389,20.380,40.302,29.969,60.606,30.984C58.571,22.215,61.351,13.025,67.911,6.861C78.080,-2.699,94.074,-2.209,103.633,7.956C109.288,6.841,114.708,4.766,119.667,1.826C117.783,7.671,113.838,12.636,108.568,15.790C113.573,15.200,118.463,13.860,123.067,11.816C119.677,16.895,115.408,21.320,110.468,24.895ZZ"/>
</svg>
