<svg xmlns="http://www.w3.org/2000/svg" viewBox="0 0 142.674 100">
	<path d="M139.560,15.659C137.912,9.524,133.059,4.670,126.923,3.022C115.842,0.000,71.245,0.000,71.245,0.000C71.245,0.000,26.648,0.092,15.568,3.114C9.432,4.762,4.579,9.615,2.930,15.751C0.000,26.832,0.000,50.000,0.000,50.000C0.000,50.000,0.000,73.168,3.022,84.341C4.670,90.476,9.524,95.330,15.659,96.978C26.740,100.000,71.337,100.000,71.337,100.000C71.337,100.000,115.934,100.000,127.015,96.978C133.150,95.330,138.004,90.476,139.652,84.341C142.674,73.260,142.674,50.000,142.674,50.000C142.674,50.000,142.582,26.832,139.560,15.659ZM57.051,28.571L94.048,50.000L57.051,71.429"/>
</svg>
