<svg xmlns="http://www.w3.org/2000/svg" viewBox="0 0 300 150">
	<polygon fill="red" points="0,0 100,25 100,125 0,150"/>
	<polygon fill="white" points="100,25 300,75 100,125"/>
	<polygon fill="darkblue" points="100,25 130,32.5 130,60 240,60 300,75 240,90 130,90 130,117.5 100,125"/>
	<path fill="white" stroke="white" stroke-width="1" d="M71.987,68.786L71.987,68.786ZC69.967,67.272,64.291,63.808,56.065,62.158C52.729,61.494,49.684,61.184,46.933,61.184C32.456,61.184,25.631,64.668,25.631,71.835C25.631,73.984,26.287,75.677,27.637,77.003C31.010,80.315,37.555,80.642,41.550,80.618L89.807,80.615C88.771,80.079,83.375,76.547,83.375,76.527C83.371,76.527,53.382,76.507,53.382,76.507L53.488,74.365L80.295,74.365C79.175,73.610,74.858,70.786,74.858,70.770L53.255,70.736L53.358,68.780L71.987,68.786ZM45.357,94.347L45.357,94.347ZL46.188,92.903C44.814,92.137,42.989,91.281,39.957,90.012C39.957,90.012,39.715,92.522,39.404,94.347C39.411,94.347,45.357,94.347,45.357,94.347ZM60.231,93.551C60.231,93.551,58.166,88.407,56.270,82.767C56.270,82.764,56.270,82.764,56.270,82.764L41.020,82.764C38.047,82.781,30.214,82.764,25.945,78.797C24.065,77.050,23.180,74.655,23.180,71.835L23.197,71.242C23.731,59.011,40.737,59.011,47.145,59.011C50.627,59.011,54.629,59.592,56.123,59.848C61.058,57.551,66.314,51.432,66.314,44.612C66.314,39.684,64.229,34.969,60.593,31.680C57.158,28.570,52.708,27.083,48.061,27.481C45.655,27.690,42.463,28.914,38.023,31.336C31.847,34.699,25.501,37.148,20.610,38.035C19.377,38.261,18.826,38.409,18.334,38.966C17.979,39.364,17.968,39.917,17.996,40.079C18.061,40.578,18.348,41.300,20.026,41.232C22.066,41.155,24.144,40.642,26.427,39.536C27.756,38.892,28.987,38.969,29.718,39.745C30.228,40.288,30.364,41.074,30.053,41.580C29.325,42.771,27.374,43.131,26.051,41.883L22.897,42.919L24.059,46.595L24.059,46.595C29.674,46.069,33.696,42.818,37.596,39.667C41.359,36.628,44.909,33.758,49.496,33.758C53.959,33.758,57.722,37.249,58.648,42.244C59.188,45.135,58.539,48.029,56.871,50.194C54.718,52.974,51.017,54.606,45.866,55.048C45.866,55.048,38.067,55.638,38.054,55.638C22.295,56.745,11.885,57.473,11.068,67.761C10.310,76.682,19.233,79.883,29.595,83.600C33.707,85.078,37.961,86.602,42.244,88.609C48.009,91.270,52.497,93.567,55.535,96.107L60.231,93.551ZM58.672,82.767L58.672,82.767ZC58.672,82.767,59.967,86.531,60.993,89.186C61.017,89.186,88.382,94.036,89.465,94.228C83.573,90.633,77.274,84.606,75.538,82.764L58.672,82.767Z"/>
	<path fill="gold" stroke="gold" stroke-width="1" d="M20.962,43.577L20.962,43.577ZC18.389,45.715,13.942,47.493,8.567,48.569C8.567,49.152,8.734,49.601,9.066,49.904C9.476,50.275,10.139,50.461,11.027,50.363C14.373,49.985,18.785,48.555,22.083,47.257L20.962,43.577ZM27.432,97.726L27.432,97.726ZC25.764,99.804,23.443,101.747,20.559,103.521C23.238,103.632,27.927,103.777,31.369,103.464C32.189,103.390,33.341,103.251,34.000,102.897C30.091,101.285,28.519,99.183,27.432,97.726ZM40.190,105.434L40.190,105.434ZC40.210,103.082,42.080,99.676,44.062,96.394L39.137,96.397C38.601,98.947,37.900,101.066,37.165,102.398C35.880,104.732,34.069,105.339,31.567,105.568C27.910,105.902,23.078,105.649,20.323,105.454C22.575,107.194,24.947,109.501,25.781,113.384C27.589,111.987,34.021,107.623,41.331,109.242C40.337,107.970,40.180,106.388,40.190,105.434ZM50.108,106.907L50.108,106.907ZC50.357,110.658,49.458,112.895,48.682,115.036C54.246,111.744,57.237,109.198,58.450,107.211C55.753,107.768,53.084,107.704,50.108,106.907ZM61.071,104.583L61.071,104.583ZC61.290,107.036,60.039,111.066,49.253,116.989C53.884,118.096,57.435,120.447,58.898,122.170C60.825,116.308,66.280,109.268,69.824,106.907C67.387,106.725,65.446,105.484,64.492,103.423C64.492,103.423,61.071,95.709,60.979,95.500L57.233,97.433C59.000,99.160,60.747,100.860,61.071,104.583Z"/>
	<path fill="black" d="M58.672,82.767L75.538,82.764C77.274,84.606,83.573,90.633,89.465,94.228C88.382,94.036,61.017,89.186,60.993,89.186C59.967,86.531,58.672,82.767,58.672,82.767ZL58.672,82.767ZM61.071,104.583C60.747,100.860,59.000,99.160,57.233,97.433L60.979,95.500C61.071,95.709,64.492,103.423,64.492,103.423C65.446,105.484,67.387,106.725,69.824,106.907C66.280,109.268,60.825,116.308,58.898,122.170C57.435,120.447,53.884,118.096,49.253,116.989C60.039,111.066,61.290,107.036,61.071,104.583ZL61.071,104.583ZM50.108,106.907C53.084,107.704,55.753,107.768,58.450,107.211C57.237,109.198,54.246,111.744,48.682,115.036C49.458,112.895,50.357,110.658,50.108,106.907ZL50.108,106.907ZM55.535,96.107C52.497,93.567,48.009,91.270,42.244,88.609C37.961,86.602,33.707,85.078,29.595,83.600C19.233,79.883,10.310,76.682,11.068,67.761C11.885,57.473,22.295,56.745,38.054,55.638C38.067,55.638,45.866,55.048,45.866,55.048C51.017,54.606,54.718,52.974,56.871,50.194C58.539,48.029,59.188,45.135,58.648,42.244C57.722,37.249,53.959,33.758,49.496,33.758C44.909,33.758,41.359,36.628,37.596,39.667C33.696,42.818,29.674,46.069,24.059,46.595L24.059,46.595L22.897,42.919L26.051,41.883C27.374,43.131,29.325,42.771,30.053,41.580C30.364,41.074,30.228,40.288,29.718,39.745C28.987,38.969,27.756,38.892,26.427,39.536C24.144,40.642,22.066,41.155,20.026,41.232C18.348,41.300,18.061,40.578,17.996,40.079C17.968,39.917,17.979,39.364,18.334,38.966C18.826,38.409,19.377,38.261,20.610,38.035C25.501,37.148,31.847,34.699,38.023,31.336C42.463,28.914,45.655,27.690,48.061,27.481C52.708,27.083,57.158,28.570,60.593,31.680C64.229,34.969,66.314,39.684,66.314,44.612C66.314,51.432,61.058,57.551,56.123,59.848C54.629,59.592,50.627,59.011,47.145,59.011C40.737,59.011,23.731,59.011,23.197,71.242L23.180,71.835C23.180,74.655,24.065,77.050,25.945,78.797C30.214,82.764,38.047,82.781,41.020,82.764L56.270,82.764C56.270,82.764,56.270,82.764,56.270,82.767C58.166,88.407,60.231,93.551,60.231,93.551L55.535,96.107ZM45.357,94.347C45.357,94.347,39.411,94.347,39.404,94.347C39.715,92.522,39.957,90.012,39.957,90.012C42.989,91.281,44.814,92.137,46.188,92.903L45.357,94.347ZL45.357,94.347ZM40.190,105.434C40.180,106.388,40.337,107.970,41.331,109.242C34.021,107.623,27.589,111.987,25.781,113.384C24.947,109.501,22.575,107.194,20.323,105.454C23.078,105.649,27.910,105.902,31.567,105.568C34.069,105.339,35.880,104.732,37.165,102.398C37.900,101.066,38.601,98.947,39.137,96.397L44.062,96.394C42.080,99.676,40.210,103.082,40.190,105.434ZL40.190,105.434ZM27.432,97.726C28.519,99.183,30.091,101.285,34.000,102.897C33.341,103.251,32.189,103.390,31.369,103.464C27.927,103.777,23.238,103.632,20.559,103.521C23.443,101.747,25.764,99.804,27.432,97.726ZL27.432,97.726ZM20.962,43.577L22.083,47.257C18.785,48.555,14.373,49.985,11.027,50.363C10.139,50.461,9.476,50.275,9.066,49.904C8.734,49.601,8.567,49.152,8.567,48.569C13.942,47.493,18.389,45.715,20.962,43.577ZL20.962,43.577ZM71.987,68.786L53.358,68.780L53.255,70.736L74.858,70.770C74.858,70.786,79.175,73.610,80.295,74.365L53.488,74.365L53.382,76.507C53.382,76.507,83.371,76.527,83.375,76.527C83.375,76.547,88.771,80.079,89.807,80.615L41.550,80.618C37.555,80.642,31.010,80.315,27.637,77.003C26.287,75.677,25.631,73.984,25.631,71.835C25.631,64.668,32.456,61.184,46.933,61.184C49.684,61.184,52.729,61.494,56.065,62.158C64.291,63.808,69.967,67.272,71.987,68.786ZL71.987,68.786ZM37.640,89.054C37.692,92.505,36.547,98.431,35.210,101.160C31.355,99.487,29.667,96.870,28.755,95.601L26.454,95.308C25.193,96.940,21.656,101.066,14.934,104.331C15.904,104.887,23.044,109.127,23.915,115.482L26.089,116.038C28.973,113.809,36.263,109.012,43.631,112.213L44.694,110.274C43.033,108.290,42.500,107.272,42.500,105.872C42.500,102.061,46.198,96.890,48.320,94.029C54.530,97.288,58.928,100.721,58.850,105.305C53.590,105.929,49.927,104.594,49.927,104.594L47.886,105.956C48.696,110.415,45.340,117.360,44.684,118.666C54.547,119.624,58.248,124.946,58.283,125.000L60.719,124.531C63.231,116.591,68.382,109.852,74.236,106.867L73.522,104.803C69.844,105.437,67.599,104.651,66.533,102.330C65.056,99.308,63.498,95.669,61.898,91.507C69.978,92.862,78.559,94.438,86.133,95.827L93.241,97.122L94.000,95.099C85.938,89.860,81.352,85.496,78.788,82.730L93.552,82.747L93.867,80.942L85.743,75.367L72.281,66.196C71.386,65.589,66.618,62.509,59.236,60.576C64.048,57.905,68.877,51.840,68.877,44.737C68.877,39.094,66.492,33.697,62.329,29.930C58.361,26.341,53.214,24.614,47.835,25.073C44.848,25.332,41.109,26.742,36.735,29.265C30.996,32.557,25.552,34.709,20.081,35.836C17.924,36.281,17.131,36.628,16.403,37.455C15.641,38.315,15.292,39.394,15.450,40.416C15.662,41.799,16.434,42.727,17.736,43.179C13.556,45.617,7.849,46.892,6.000,47.162C6.198,50.113,7.070,52.940,11.229,52.522C15.125,52.137,20.815,50.046,24.199,48.842C31.157,48.049,35.453,44.460,39.223,41.415C42.770,38.544,45.829,36.176,49.496,36.176C52.250,36.176,55.453,38.419,56.246,42.703C56.348,43.256,56.765,46.147,54.827,48.653C53.091,50.899,49.916,52.279,45.644,52.643L37.418,53.267C21.813,54.357,9.493,55.217,8.509,67.555C7.603,78.166,17.374,81.674,28.683,85.729C30.747,86.400,33.023,87.193,37.640,89.054ZL37.640,89.054Z"/>
</svg>
